<?xml version="1.0" encoding="UTF-8"?>
<svg id="Layer_1" xmlns="http://www.w3.org/2000/svg" xmlns:xlink="http://www.w3.org/1999/xlink" version="1.1" viewBox="0 0 460.8 345.6">
  <!-- Generator: Adobe Illustrator 29.3.1, SVG Export Plug-In . SVG Version: 2.1.0 Build 151)  -->
  <defs>
    <style>
      .st0, .st1, .st2, .st3, .st4 {
        fill: none;
      }

      .st5 {
        font-size: 18.9px;
      }

      .st5, .st6 {
        font-family: Helvetica, Helvetica;
        isolation: isolate;
      }

      .st7 {
        fill: #333;
      }

      .st7, .st2, .st3, .st4 {
        stroke-linejoin: round;
      }

      .st7, .st3 {
        stroke: #333;
      }

      .st1 {
        stroke: #7f7f7f;
      }

      .st8 {
        font-family: MyriadPro-Regular, 'Myriad Pro';
        font-size: 14px;
      }

      .st6 {
        fill: #4d4d4d;
        font-size: 11.9px;
      }

      .st9 {
        stroke: #fff;
      }

      .st9, .st10 {
        fill: #fff;
      }

      .st2 {
        stroke: #fafafa;
        stroke-width: .5px;
      }

      .st2, .st3, .st4 {
        stroke-linecap: square;
      }

      .st3 {
        stroke-width: 1.5px;
      }

      .st4 {
        stroke: #e5e5e5;
      }

      .st11 {
        fill: #f4889d;
      }
    </style>
  </defs>
  <path class="st9" d="M-273.2,445.6h789.7V-21.9H-273.2v467.5Z"/>
  <path class="st10" d="M-214.6,401.3H491V-15.7H-214.6v417Z"/>
  <rect class="st0" x="-214.6" y="-15.7" width="705.7" height="417"/>
  <path class="st4" d="M-173.1,401.3V-15.7"/>
  <path class="st3" d="M-173.1,401.3"/>
  <path id="me8ad9ce9b5" class="st7" d="M-173.1,401.3v3.7"/>
  <text class="st6" transform="translate(-187.7 416.5) scale(1.3 1)"><tspan x="0" y="0">New </tspan><tspan x="0" y="14.3">Zealand</tspan></text>
  <rect class="st0" x="-214.6" y="-15.7" width="705.7" height="417"/>
  <path class="st4" d="M-104,401.3V-15.7"/>
  <path class="st3" d="M-104,401.3"/>
  <path id="me8ad9ce9b51" data-name="me8ad9ce9b5" class="st7" d="M-104,401.3v3.7"/>
  <text/>
  <rect class="st0" x="-214.6" y="-15.7" width="705.7" height="417"/>
  <path class="st4" d="M-34.8,401.3V-15.7"/>
  <path class="st3" d="M-34.8,401.3"/>
  <path id="me8ad9ce9b52" data-name="me8ad9ce9b5" class="st7" d="M-34.8,401.3v3.7"/>
  <text class="st6" transform="translate(-64.1 416.3) scale(1.3 1)"><tspan x="0" y="0">Australia</tspan></text>
  <rect class="st0" x="-214.6" y="-15.7" width="705.7" height="417"/>
  <path class="st4" d="M34.4,401.3V-15.7"/>
  <path class="st3" d="M34.4,401.3"/>
  <path id="me8ad9ce9b53" data-name="me8ad9ce9b5" class="st7" d="M34.4,401.3v3.7"/>
  <text class="st6" transform="translate(9.7 416.3) scale(1.3 1)"><tspan x="0" y="0">Finland</tspan></text>
  <rect class="st0" x="-214.6" y="-15.7" width="705.7" height="417"/>
  <path class="st4" d="M103.6,401.3V-15.7"/>
  <path class="st3" d="M103.6,401.3"/>
  <path id="me8ad9ce9b54" data-name="me8ad9ce9b5" class="st7" d="M103.6,401.3v3.7"/>
  <text class="st6" transform="translate(76.3 416.3) scale(1.3 1)"><tspan x="0" y="0">Sweden</tspan></text>
  <rect class="st0" x="-214.6" y="-15.7" width="705.7" height="417"/>
  <path class="st4" d="M172.8,401.3V-15.7"/>
  <path class="st3" d="M172.8,401.3"/>
  <path id="me8ad9ce9b55" data-name="me8ad9ce9b5" class="st7" d="M172.8,401.3v3.7"/>
  <text class="st6" transform="translate(146.4 416.3) scale(1.3 1)"><tspan x="0" y="0">Canada</tspan></text>
  <rect class="st0" x="-214.6" y="-15.7" width="705.7" height="417"/>
  <path class="st4" d="M242,401.3V-15.7"/>
  <path class="st3" d="M242,401.3"/>
  <path id="me8ad9ce9b56" data-name="me8ad9ce9b5" class="st7" d="M242,401.3v3.7"/>
  <text class="st6" transform="translate(211.4 416.3) scale(1.3 1)"><tspan x="0" y="0">Denmark</tspan></text>
  <rect class="st0" x="-214.6" y="-15.7" width="705.7" height="417"/>
  <path class="st4" d="M311.1,401.3V-15.7"/>
  <path class="st3" d="M311.1,401.3"/>
  <path id="me8ad9ce9b57" data-name="me8ad9ce9b5" class="st7" d="M311.1,401.3v3.7"/>
  <text class="st6" transform="translate(288.1 416.3) scale(1.3 1)"><tspan x="0" y="0">Ireland</tspan></text>
  <rect class="st0" x="-214.6" y="-15.7" width="705.7" height="417"/>
  <path class="st4" d="M380.3,401.3V-15.7"/>
  <path class="st3" d="M380.3,401.3"/>
  <path id="me8ad9ce9b58" data-name="me8ad9ce9b5" class="st7" d="M380.3,401.3v3.7"/>
  <text class="st6" transform="translate(366.5 416.3) scale(1.3 1)"><tspan x="0" y="0">Italy</tspan></text>
  <rect class="st0" x="-214.6" y="-15.7" width="705.7" height="417"/>
  <path class="st4" d="M449.5,401.3V-15.7"/>
  <path class="st3" d="M449.5,401.3"/>
  <path id="me8ad9ce9b59" data-name="me8ad9ce9b5" class="st7" d="M449.5,401.3v3.7"/>
  <text class="st6" transform="translate(425.7 418.8) scale(1.3 1)"><tspan x="0" y="0">United </tspan><tspan x="0" y="14.3">Kingdom</tspan></text>
  <rect class="st0" x="-214.6" y="-15.7" width="705.7" height="417"/>
  <path class="st4" d="M-214.6,382.4H491"/>
  <path class="st3" d="M-214.6,382.4"/>
  <path id="mc733fc7b8c" class="st7" d="M-214.6,382.4h-4.7"/>
  <text class="st6" transform="translate(-231.2 386.6) scale(1.3 1)"><tspan x="0" y="0">0</tspan></text>
  <rect class="st0" x="-214.6" y="-15.7" width="705.7" height="417"/>
  <path class="st4" d="M-214.6,248.9H491"/>
  <path class="st3" d="M-214.6,248.9"/>
  <path id="mc733fc7b8c1" data-name="mc733fc7b8c" class="st7" d="M-214.6,248.9h-4.7"/>
  <text class="st6" transform="translate(-239.6 253.2) scale(1.3 1)"><tspan x="0" y="0">10</tspan></text>
  <rect class="st0" x="-214.6" y="-15.7" width="705.7" height="417"/>
  <path class="st4" d="M-214.6,115.4H491"/>
  <path class="st3" d="M-214.6,115.4"/>
  <path id="mc733fc7b8c2" data-name="mc733fc7b8c" class="st7" d="M-214.6,115.4h-5.8"/>
  <text class="st6" transform="translate(-239.6 119.7) scale(1.3 1)"><tspan x="0" y="0">20</tspan></text>
  <rect class="st0" x="-214.6" y="-15.7" width="705.7" height="417"/>
  <path class="st2" d="M-214.6,315.6H491"/>
  <rect class="st0" x="-214.6" y="-15.7" width="705.7" height="417"/>
  <path class="st2" d="M-214.6,182.2H491"/>
  <rect class="st0" x="-214.6" y="-15.7" width="705.7" height="417"/>
  <path class="st2" d="M-214.6,48.7H491"/>
  <rect class="st0" x="-214.6" y="-15.7" width="705.7" height="417"/>
  <path class="st11" d="M-204.3,382.4V3.3h62.3v379.1h-62.3Z"/>
  <rect class="st0" x="-214.6" y="-15.7" width="705.7" height="417"/>
  <path class="st11" d="M-135.1,382.4V104.7h62.3v277.6h-62.3Z"/>
  <rect class="st0" x="-214.6" y="-15.7" width="705.7" height="417"/>
  <path class="st11" d="M-65.9,382.4v-240.3H-3.6v240.3h-62.3Z"/>
  <rect class="st0" x="-214.6" y="-15.7" width="705.7" height="417"/>
  <path class="st11" d="M3.3,382.4v-189.5h62.3v189.5H3.3Z"/>
  <rect class="st0" x="-214.6" y="-15.7" width="705.7" height="417"/>
  <path class="st11" d="M72.5,382.4v-160.2h62.3v160.2h-62.3Z"/>
  <rect class="st0" x="-214.6" y="-15.7" width="705.7" height="417"/>
  <path class="st11" d="M141.6,382.4v-141.5h62.3v141.5h-62.3Z"/>
  <rect class="st0" x="-214.6" y="-15.7" width="705.7" height="417"/>
  <path class="st11" d="M210.8,382.4v-130.8h62.3v130.8h-62.3Z"/>
  <rect class="st0" x="-214.6" y="-15.7" width="705.7" height="417"/>
  <path class="st11" d="M280,382.4v-112.1h62.3v112.1h-62.3Z"/>
  <rect class="st0" x="-214.6" y="-15.7" width="705.7" height="417"/>
  <path class="st11" d="M349.2,382.4v-106.8h62.3v106.8h-62.3Z"/>
  <rect class="st0" x="-214.6" y="-15.7" width="705.7" height="417"/>
  <path class="st11" d="M418.4,382.4v-93.4h62.3v93.4h-62.3Z"/>
  <path class="st1" d="M-214.6,401.3H491V-15.7H-214.6v417Z"/>
  <text/>
  <text class="st5" transform="translate(-249.5 378.4) rotate(-90) scale(.8 1)"><tspan x="0" y="0" xml:space="preserve"> Yearly Ice Cream Consumption per person</tspan></text>
  <text class="st8" transform="translate(-114.1 424.6)"><tspan x="0" y="0">USA</tspan></text>
</svg>